<?xml version="1.0" encoding="iso-8859-1"?>
<!-- Generator: Adobe Illustrator 19.0.0, SVG Export Plug-In . SVG Version: 6.00 Build 0)  -->
<svg version="1.1" id="Capa_1" xmlns="http://www.w3.org/2000/svg" xmlns:xlink="http://www.w3.org/1999/xlink" x="0px" y="0px"
	 viewBox="0 0 365.744 365.744" style="enable-background:new 0 0 365.744 365.744;" xml:space="preserve">
<g>
	<g>
		<g>
			<path d="M88.309,339.074c1.64,15.621,15.131,27.282,30.825,26.645H250.79c15.981,0.636,29.705-11.258,31.347-27.167
				l21.42-223.608H62.186L88.309,339.074z"/>
			<path d="M342.742,47.026h-97.176V30.307c0.58-16.148-12.041-29.708-28.188-30.288c-0.53-0.019-1.061-0.024-1.591-0.014h-65.829
				c-16.156-0.299-29.494,12.555-29.793,28.711c-0.01,0.53-0.005,1.061,0.014,1.591v16.718H23.003
				c-5.771,0-10.449,4.678-10.449,10.449s4.678,10.449,10.449,10.449h319.739c5.771,0,10.449-4.678,10.449-10.449
				S348.512,47.026,342.742,47.026z M224.668,30.307v16.718h-83.592V30.307c-0.589-4.579,2.646-8.768,7.225-9.357
				c0.549-0.071,1.104-0.086,1.656-0.047h65.829c4.605-0.326,8.603,3.143,8.929,7.748C224.755,29.203,224.739,29.758,224.668,30.307
				z"/>
		</g>
	</g>
</g>
<g>
</g>
<g>
</g>
<g>
</g>
<g>
</g>
<g>
</g>
<g>
</g>
<g>
</g>
<g>
</g>
<g>
</g>
<g>
</g>
<g>
</g>
<g>
</g>
<g>
</g>
<g>
</g>
<g>
</g>
</svg>
